<?xml version="1.0" encoding="UTF-8" standalone="no"?>
<svg
   xmlns:dc="http://purl.org/dc/elements/1.1/"
   xmlns:cc="http://creativecommons.org/ns#"
   xmlns:rdf="http://www.w3.org/1999/02/22-rdf-syntax-ns#"
   xmlns:svg="http://www.w3.org/2000/svg"
   xmlns="http://www.w3.org/2000/svg"
   id="svg841"
   version="1.1"
   viewBox="0 0 11.006667 13.546704"
   height="13.546704mm"
   width="11.006667mm">
  <defs
     id="defs835" />
  <metadata
     id="metadata838">
    <rdf:RDF>
      <cc:Work
         rdf:about="">
        <dc:format>image/svg+xml</dc:format>
        <dc:type
           rdf:resource="http://purl.org/dc/dcmitype/StillImage" />
        <dc:title></dc:title>
      </cc:Work>
    </rdf:RDF>
  </metadata>
  <g
     transform="translate(-73.115714,-58.90522)"
     id="layer1">
    <path
       style="stroke-width:0.02645833"
       id="path2"
       d="m 78.616402,59.307423 c 0.02117,0.124355 0.425979,2.500313 0.425979,3.407834 0,1.383771 -0.735542,2.370666 -1.822979,2.767541 l 0.341312,6.29973 c 0.01852,0.362479 -0.269875,0.669396 -0.635,0.669396 h -1.693333 c -0.362479,0 -0.653521,-0.304271 -0.635,-0.669396 l 0.341312,-6.29973 c -1.090083,-0.396875 -1.822979,-1.386416 -1.822979,-2.767541 0,-0.910167 0.404813,-3.283479 0.425979,-3.407834 0.08467,-0.537104 1.198563,-0.545041 1.267354,0.02911 v 3.735916 c 0.0344,0.08996 0.399521,0.08467 0.423334,0 0.03704,-0.669396 0.209021,-3.683 0.211666,-3.751791 0.08731,-0.550334 1.182688,-0.550334 1.267355,0 0.0053,0.07144 0.174625,3.082395 0.211666,3.751791 0.02381,0.08467 0.391584,0.08996 0.423334,0 v -3.735916 c 0.06879,-0.5715 1.185333,-0.566209 1.27,-0.02911 z m 3.153833,7.559146 -0.396875,4.897438 c -0.03175,0.370417 0.261937,0.687917 0.632354,0.687917 h 1.481667 c 0.351895,0 0.635,-0.283105 0.635,-0.635 V 59.540257 c 0,-0.34925 -0.283105,-0.635 -0.635,-0.635 -2.182813,0 -5.857875,4.722812 -1.717146,7.961312 z" />
  </g>
</svg>
